<?xml version="1.0" encoding="UTF-8"?>
<svg id="Layer_2" data-name="Layer 2" xmlns="http://www.w3.org/2000/svg" xmlns:xlink="http://www.w3.org/1999/xlink" viewBox="0 0 1286 338.01">
  <defs>
    <style>
      .cls-1 {
        fill: url(#linear-gradient);
      }

      .cls-1, .cls-2, .cls-3, .cls-4, .cls-5, .cls-6, .cls-7 {
        stroke-width: 0px;
      }

      .cls-2 {
        fill: url(#linear-gradient-6);
      }

      .cls-3 {
        fill: url(#linear-gradient-5);
      }

      .cls-4 {
        fill: url(#linear-gradient-2);
      }

      .cls-5 {
        fill: url(#linear-gradient-7);
      }

      .cls-6 {
        fill: url(#linear-gradient-3);
      }

      .cls-7 {
        fill: url(#linear-gradient-4);
      }
    </style>
    <linearGradient id="linear-gradient" x1="136.46" y1="146.1" x2="40.7" y2="311.96" gradientUnits="userSpaceOnUse">
      <stop offset="0" stop-color="#c471f2"/>
      <stop offset="1" stop-color="#3cfce9"/>
    </linearGradient>
    <linearGradient id="linear-gradient-2" x1="279.78" y1="78.35" x2="150.31" y2="302.6" xlink:href="#linear-gradient"/>
    <linearGradient id="linear-gradient-3" x1="428.92" y1="133.27" x2="317.37" y2="326.47" xlink:href="#linear-gradient"/>
    <linearGradient id="linear-gradient-4" x1="894.36" y1="126.77" x2="787.24" y2="312.32" xlink:href="#linear-gradient"/>
    <linearGradient id="linear-gradient-5" x1="1106.11" y1="133.27" x2="994.57" y2="326.47" xlink:href="#linear-gradient"/>
    <linearGradient id="linear-gradient-6" x1="1264.61" y1="78.35" x2="1135.14" y2="302.6" xlink:href="#linear-gradient"/>
    <linearGradient id="linear-gradient-7" x1="688.35" y1="16.96" x2="525.24" y2="299.47" xlink:href="#linear-gradient"/>
  </defs>
  <g id="main_logo" data-name="main logo">
    <g>
      <path class="cls-1" d="m192.1,208.59c-1.29,15.37-20.52,116.84-99.52,115.84C13.58,323.42-.51,265.93.01,219.23c.57-50.83,41.88-92.19,91.61-92.19,32.94,0,51.55,33.71,47.45,68.55-1.39,11.79-7.7,17.79-14.28,18.78-8.56,1.29-17.58-5.93-16.79-19.96,1.19-21.29-2.86-41.37-10.64-41.37-48.21,0-44.68,146.57-1.83,146.57,63.25,0,74.34-89.83,74.34-89.83,1.32-18.91,23.3-14.19,22.22-1.18Z"/>
      <path class="cls-4" d="m301.13,212.54c-1.22,13.68-13.32,125.47-76.62,125.47-48.86,0-52.72-62.34-53.42-77.12-2.3-48.07-5.72-131.97-5.41-179.38.11-17.2,1.64-47.67,30.53-46.64,31.04,1.11,29.68,32.44,29.48,43.3-.44,23.66-3.58,56.17-7.4,90.42-2.22,19.88-9.33,144.98,10.67,144.98,31.27,0,47.97-73.29,49.95-99.93,1.32-17.76,23.3-13.32,22.22-1.11Z"/>
      <path class="cls-6" d="m503.85,211.43c-1.22,13.68-14.37,115.48-67.67,115.48-24.73,0-38.62-28.75-46.34-63.13-10.24,33.64-28.24,63.13-60.26,63.13-59.98,0-55.2-107.61-55.52-155.45-.07-10.87-1.07-42.19,29.98-43.3,28.9-1.03,30.07,29.44,29.98,46.64-.23,43.85-13.35,123.25,5.46,123.25,24.03,0,37.39-82.57,41.28-118.6-.05-2.79-.1-5.49-.12-7.99-.07-10.87-1.07-42.19,29.98-43.3,28.9-1.03,30.07,29.44,29.99,46.64-.23,43.85-17.01,123.25,5.46,123.25,14.44,0,33.56-58.85,35.55-85.5,1.32-17.77,23.31-13.32,22.22-1.11Z"/>
      <path class="cls-7" d="m929.6,248.07c-6.36,42.42-36.84,77.69-76.21,82.59-15.38,1.91-31.88-.06-46.1-6.97-9.25-4.49-17.53-11.02-24.01-19.88-6.27-8.59-10.72-19.26-12.48-32.22-.69-5.07-2.41-24.34-2.2-30.18-.89-1.04-27.76-19.99-10.45-72.18,6.32-19.05,18.55-36.11,33.59-47.01,6.81-4.94,14.3-8.64,22.29-10.71,40.95-10.64,77.82,6.57,96.24,34.17,9.32,13.96,15.52,30.94,18.66,48.81,3.08,17.52,3.29,36.09.67,53.58Zm-104.38-113.26c-42.98,1.6-50.06,77.45-42.19,73.29,0,0,8.35-27.75,14.8-39.91,3.74-7.11,11.08-10.31,18.52-6.73,7.43,3.58,7.07,11.76,3.33,18.88-13.37,25.24-16.66,47.75-16.66,47.75-5.01,15.26,28.31,18.59,40.52.83,4.51-6.56,10.6-11.01,16.66-5.55,6.06,5.45,2.88,13.71-2.4,19.9-25.9,30.35-58.11,15.91-58.11,15.91,0,0,7.77,61.07,52.19,43.31,48.88-19.55,25.59-169.61-26.65-167.67Z"/>
      <path class="cls-3" d="m1181.04,211.43c-1.22,13.68-14.38,115.48-67.67,115.48-24.73,0-38.62-28.75-46.34-63.13-10.24,33.64-28.24,63.13-60.26,63.13-59.98,0-55.21-107.61-55.53-155.45-.07-10.87-1.07-42.19,29.98-43.3,28.9-1.03,30.07,29.44,29.98,46.64-.23,43.85-13.35,123.25,5.46,123.25,24.03,0,37.39-82.57,41.28-118.6-.06-2.79-.1-5.49-.12-7.99-.07-10.87-1.07-42.19,29.98-43.3,28.9-1.03,30.07,29.44,29.99,46.64-.23,43.85-17.01,123.25,5.46,123.25,14.44,0,33.56-58.85,35.55-85.5,1.32-17.77,23.31-13.32,22.22-1.11Z"/>
      <path class="cls-2" d="m1285.96,212.54c-1.22,13.68-13.32,125.47-76.62,125.47-48.86,0-52.72-62.34-53.42-77.12-1.57-32.99-3.68-82.84-4.75-126.2h-12.9l-.91-.02c-9.32-.47-16.74-8.19-16.74-17.63s7.91-17.65,17.65-17.65h12.27c-.05-6.36-.08-12.39-.04-17.88.11-17.2,1.64-47.67,30.53-46.64,31.04,1.11,29.67,32.44,29.48,43.3-.12,6.45-.45,13.6-.93,21.21,20.07,0,16.83,0,17.42,0,28.98,0,27.87,35.3,3.44,35.3h-23.77c-1.06,10.93-2.26,22.29-3.56,33.9-2.22,19.88-14.87,144.98,10.67,144.98,31.27,0,47.97-73.29,49.95-99.93,1.32-17.76,23.3-13.32,22.22-1.11Z"/>
      <path class="cls-5" d="m669.16,147.29c15.21-16.67,27.61-37.67,33.47-58.31,6.33-22.3,5.08-43.77-4.84-59.53-10.11-16.08-29.45-28.03-62.94-27.08-31.41.91-56.74,21.62-75.54,49.8.09-8.24.15-16.99.15-26.38s-8.9-25.8-32.22-25.8c-18.86,0-27.76,16.05-27.76,25.8,0,45.62,1.66,77.6,3.84,99.96,1,10.17,1.55,20.37,2.63,30.54,2.09,19.65,5.72,39.06,8.27,58.65,2.41,18.53,1.87,37.36,5.75,55.71,3.22,15.21,14.65,29.49,26.29,39.2,20.73,17.31,51.43,28.05,80.83,27.54,64.71-1.15,106.78-54.75,109.69-98.37,2.63-38.95-21.47-78.49-67.62-91.74Zm-152.69-24.36c1.51-3.02,2.59-6.56,4.6-8.97,8.15-9.8,16.53-19.32,24.92-28.82,6.95-7.87,15.36-9.62,24.53-4.95,9.92,5.05,18.25,3.61,26.04-4.32,7.06-7.19,15.47-8.2,24.36-3.11,11.31,6.48,22.58,13.07,33.72,20.01,2.41,1.5,4.19,4.67,6.26,7.07-2.35,1.35-4.56,3.49-7.06,3.92-21.37,3.69-42.8,7.06-64.21,10.53-21.24,3.44-42.46,7-63.73,10.18-2.99.45-6.28-.99-9.43-1.56Zm143.45,5.76c-16.01,20.85-32.13,41.56-48.42,62.07-3.22,4.06-4.31,7.86-3.27,13.84,4.33,24.74,8.31,49.55,12.07,74.38.82,5.42,2.71,7.52,7.01,8.48,7.79,1.74,15.51,4.15,23.24,6.39,1.94.56,3.83,1.52,5.74,2.3.03.87.05,1.75.08,2.62-24.22,4.31-48.56,7.96-72.83,11.99-.26-.81-.53-1.62-.79-2.44,1.5-1.4,2.88-3.02,4.51-4.15,7.22-4.97,14.47-9.88,21.81-14.61,2.44-1.57,3.28-3.43,2.68-7-4.47-26.88-8.68-53.8-13.29-80.65-.44-2.54-2.7-5.54-4.71-6.9-22.44-15.06-45.03-29.75-67.46-44.81-2.55-1.71-4.43-5.06-6.62-7.65,2.64-1.48,5.13-3.85,7.93-4.32,42.48-7.08,84.98-13.97,127.52-20.65,2.78-.44,5.88,1.13,8.83,1.77-1.31,3.14-2.13,6.85-4.02,9.32Z"/>
    </g>
  </g>
</svg>