<?xml version="1.0" standalone="no"?>
<!DOCTYPE svg PUBLIC "-//W3C//DTD SVG 20010904//EN"
 "http://www.w3.org/TR/2001/REC-SVG-20010904/DTD/svg10.dtd">
<svg version="1.0" xmlns="http://www.w3.org/2000/svg"
 width="320.000000pt" height="320.000000pt" viewBox="0 0 320.000000 320.000000"
 preserveAspectRatio="xMidYMid meet">
<metadata>
Created by potrace 1.14, written by Peter Selinger 2001-2017
</metadata>
<g transform="translate(0.000000,320.000000) scale(0.100000,-0.100000)"
fill="#000000" stroke="none">
<path d="M827 2549 c-52 -12 -175 -70 -232 -109 -100 -68 -179 -177 -189 -257
l-4 -31 81 59 c211 153 477 240 714 236 110 -2 112 -1 90 16 -30 24 -114 63
-168 78 -54 15 -240 20 -292 8z"/>
<path d="M2070 2500 c-59 -18 -140 -64 -140 -80 0 -6 26 -10 58 -11 31 0 64
-2 72 -3 8 -2 38 -6 65 -10 199 -24 452 -137 611 -272 l64 -54 -17 37 c-86
189 -183 303 -305 358 -118 53 -297 69 -408 35z"/>
<path d="M945 2075 c-177 -37 -303 -200 -350 -455 -14 -76 -13 -270 2 -337 44
-201 155 -316 355 -369 74 -19 188 -25 255 -13 73 14 164 63 218 118 l49 50
59 -61 c32 -33 65 -71 74 -84 l16 -24 30 42 c17 24 51 63 75 88 l45 45 15 -25
c30 -47 113 -121 160 -142 35 -16 72 -22 147 -24 178 -6 317 39 403 130 94 99
123 183 127 366 4 158 -11 257 -57 380 -67 181 -171 286 -313 318 -44 10 -159
9 -215 -2 -95 -18 -193 -70 -249 -131 -37 -41 -85 -132 -97 -185 -4 -19 -9
-39 -10 -45 -38 -168 -10 -421 66 -592 l18 -41 -36 15 c-41 17 -146 22 -204
10 l-37 -8 33 73 c60 132 81 240 80 403 -2 197 -58 330 -177 416 -40 29 -155
71 -232 84 -71 12 -188 12 -250 0z m257 -337 c27 -15 50 -39 66 -68 22 -41 23
-54 19 -140 -6 -109 -24 -175 -66 -242 -35 -55 -79 -81 -137 -80 -153 3 -214
142 -163 370 19 85 72 159 129 180 39 14 107 5 152 -20z m1018 4 c100 -40 169
-252 129 -397 -32 -115 -203 -174 -294 -100 -54 44 -87 109 -112 220 -12 55
-4 137 16 176 26 50 37 61 79 83 60 31 131 38 182 18z"/>
</g>
</svg>
