<svg fill="none" height="32" viewBox="0 0 42 32" width="42" xmlns="http://www.w3.org/2000/svg">
  <g fill="#fafaf6">
    <path
      d="m27.1398 10.2185-4.9101-4.84902-4.8149 4.84902h-2.7538l10.2359-10.2185h-10.7468l-10.27051 10.2185h-3.87959v.7113h41.9913v-.7113z" />
    <path
      d="m0 21.8682h14.7476l4.7976 4.7969 4.8841-4.7969h2.6152l-10.1666 10.1317h10.7382l5.3517-5.3001 4.8668-4.8316h4.1567v-.72h-41.9913z" />
    <path
      d="m8.13146 14.651c.19368.0014.38618.0306.57158.0868l.52823.2082.3897-1.015c-.46058-.2168-.96323-.3294-1.47217-.3296-.42877-.0128-.85319.0891-1.22968.295-.34537.2038-.62262.5057-.79668.8674-.19767.4046-.29568.8508-.28579 1.3012-.03993.6531.16721 1.2973.58019 1.8043.21326.217.47045.3858.75424.495.2838.1092.58766.1564.89114.1382.46402.0048.92399-.0868 1.35093-.2689v-1.0843l-.59753.2082c-.1966.0591-.40094.0883-.6062.0867-.70144 0-1.04785-.4597-1.04785-1.3705-.02024-.3653.07037-.7282.25984-1.041.07446-.1205.17925-.2192.30391-.2862s.26474-.0999.40614-.0955" />
    <path
      d="m13.8298 17.4617c-.2459-.004-.4902-.039-.7274-.1041-.2632-.0725-.5185-.1713-.7621-.2949v1.145c.2115.106.4355.1847.6668.2342.2627.0489.5296.0722.7967.0695.3415.0046.6803-.0604.9959-.1909.2621-.1154.487-.3016.6495-.5378.1508-.2353.2292-.5098.2251-.7894.0088-.2854-.0763-.5659-.2424-.798-.2365-.2662-.5336-.4715-.866-.5985-.2698-.1124-.5304-.2458-.7794-.3991-.0422-.0278-.0774-.065-.1029-.1086s-.0407-.0925-.0443-.1429c-.0012-.0428.0085-.0852.0282-.1231.0197-.038.0488-.0702.0844-.0938.1088-.0671.2363-.0976.3637-.0868.4013.0167.7942.1203 1.1517.3037l.3984-.9976c-.4731-.2173-.9865-.3325-1.5068-.3383-.4669-.0272-.9296.1009-1.3163.3643-.1564.121-.2813.2781-.3642.4578s-.1214.3767-.1121.5744c-.0062.2082.0322.4152.1126.6073.0777.1761.193.333.3377.4597.2148.1665.4506.3035.7015.4077.2159.09.4269.1914.6321.3036.0645.0407.1228.0903.1732.1475.0442.0672.0608.149.0463.2282s-.0591.1497-.1243.1968c-.1265.0797-.2753.1162-.4243.1041" />
    <path
      d="m19.9002 17.4617c-.2459-.0029-.4905-.0379-.7274-.1041-.2661-.0725-.5242-.1713-.7707-.2949v1.145c.2145.106.4414.1847.6754.2342.2627.0493.5295.0726.7967.0694.3387.0054.6749-.0596.9873-.1909.2636-.1129.4891-.2996.6494-.5378.1544-.2336.233-.5093.2252-.7893.0113-.2845-.0708-.5648-.2338-.7981-.2401-.2621-.5361-.4667-.866-.5985-.2723-.1131-.5357-.2465-.788-.3991-.0422-.0278-.0774-.0649-.1029-.1085-.0256-.0437-.0407-.0926-.0443-.143.0005-.0434.0119-.086.0331-.1239.0211-.0379.0514-.0698.0881-.093.1078-.0695.2362-.1002.3637-.0867.4012.0177.7938.1213 1.1517.3036l.3897-.9976c-.473-.2172-.9864-.3325-1.5068-.3383-.4667-.0259-.929.1021-1.3163.3643-.1552.1221-.2794.2793-.3622.4587-.0828.1795-.1219.376-.114.5736-.0063.2081.0321.4152.1125.6072.081.1765.1992.3334.3464.4598.2148.1664.4507.3035.7015.4076.3377.1562.5455.2516.6321.3037.0628.0429.1208.0923.1732.1474.0351.051.0533.1117.052.1735.0011.0505-.0112.1003-.0355.1445-.0244.0441-.0599.0811-.1031.1071-.1233.0795-.2694.1161-.4156.1041" />
    <path
      d="m28.7332 15.961c.0257-.317-.0167-.6358-.1243-.9351-.1075-.2992-.2777-.5719-.4992-.7998-.4832-.4061-1.102-.6138-1.7319-.5812h-1.6454v4.7623h1.5414c.3346.0203.6698-.0259.9864-.1361s.6083-.2821.8582-.5058c.2274-.2465.4029-.5365.516-.8524.113-.316.1614-.6515.1421-.9866zm-1.5674 1.0496c-.1082.1198-.2428.2128-.3931.2715s-.3122.0816-.4729.0668h-.2857v-2.6631h.3723c.1465-.0117.2937.0104.4303.0645s.259.1389.3578.2478c.1949.2846.2866.6275.2598.9716.0273.3683-.0704.7351-.2771 1.0409" />
    <path
      d="m34.4574 17.5483.2425.8674h1.4029l-1.5761-4.7883h-1.7319l-1.5502 4.7883h1.4809l.2425-.8674zm-.8659-2.6023c.0606-.2516.0952-.4338.1125-.5465 0 .1214.0693.3123.1386.5898.0692.2776.1212.5031.1732.6766l.2078.7807h-1.0132c.1992-.746.3204-1.2491.3811-1.5006" />
  </g>
</svg>