<svg width="53" height="17" viewBox="0 0 53 17" fill="none" xmlns="http://www.w3.org/2000/svg">
  <path
    d="M45.1792 3.39285C45.3706 3.39252 45.559 3.44137 45.727 3.53486C45.9092 3.63499 46.0615 3.78336 46.1676 3.96427C46.2737 4.14517 46.3297 4.35187 46.3297 4.5625V4.5625V7.88794H49.4955C49.8007 7.88794 50.0933 8.01118 50.309 8.23053C50.5248 8.44988 50.646 8.74739 50.646 9.0576C50.646 9.36781 50.5248 9.66531 50.309 9.88466C50.0933 10.104 49.8007 10.2272 49.4955 10.2272H46.3297V13.3836C46.3297 13.6939 46.2085 13.9916 45.9928 14.2112C45.7771 14.4308 45.4845 14.5544 45.1792 14.5548H36.3628C36.0577 14.5548 35.7651 14.4316 35.5493 14.2122C35.3336 13.9929 35.2123 13.6954 35.2123 13.3851V9.00494C35.2257 8.70422 35.3525 8.4203 35.5665 8.21226C35.7805 8.00421 36.0652 7.88805 36.3613 7.88794H44.0255V5.73374H35.181L30.9823 13.6532C30.9228 13.8982 30.7884 14.1178 30.5984 14.2802C30.4084 14.4427 30.1727 14.5398 29.925 14.5575C29.6774 14.5753 29.4306 14.5127 29.2201 14.3789C29.0096 14.2451 28.8463 14.0469 28.7535 13.8128L25.437 7.19541L22.0797 13.666C21.9543 14.0176 21.7056 14.3097 21.3812 14.4862C21.1209 14.6144 20.8225 14.6378 20.546 14.5517C20.2694 14.4656 20.0351 14.2763 19.8901 14.0218C19.8464 13.9565 19.81 13.8864 19.7818 13.8128L15.7339 5.73374H8.97367V7.88794H14.4405C14.7457 7.88794 15.0383 8.01118 15.254 8.23053C15.4698 8.44988 15.591 8.74739 15.591 9.0576C15.591 9.36781 15.4698 9.66531 15.254 9.88466C15.0383 10.104 14.7457 10.2272 14.4405 10.2272H8.97367V13.4458C8.96267 13.7487 8.83656 14.0355 8.62185 14.2459C8.40715 14.4563 8.12057 14.5738 7.82238 14.5738C7.5242 14.5738 7.23763 14.4563 7.02292 14.2459C6.80822 14.0355 6.6821 13.7487 6.6711 13.4458V10.2272H3.50683C3.20169 10.2272 2.90906 10.104 2.6933 9.88466C2.47754 9.66531 2.35632 9.36781 2.35632 9.0576C2.35632 8.74739 2.47754 8.44988 2.6933 8.23053C2.90906 8.01118 3.20169 7.88794 3.50683 7.88794H6.6711V4.5625C6.67143 4.35194 6.72759 4.14538 6.83365 3.96453C6.93972 3.78369 7.09177 3.63526 7.27382 3.53486C7.44222 3.44117 7.6312 3.39232 7.82317 3.39285H16.4025C16.583 3.39309 16.7609 3.43626 16.922 3.5189C17.1713 3.63123 17.3728 3.83045 17.4902 4.08059L20.8852 10.8528L24.2896 4.38537C24.4607 4.03112 24.5549 3.71358 24.9175 3.53326C25.1236 3.43167 25.3549 3.39531 25.5816 3.42888C25.8083 3.46245 26.0198 3.56441 26.1888 3.72156C26.3848 3.86538 26.5402 4.05909 26.6393 4.28325L29.8475 10.8528L33.4481 4.06304C33.538 3.90106 33.6651 3.76363 33.8186 3.66252C34.0249 3.48818 34.2848 3.39278 34.5531 3.39285H45.1745H45.1792ZM37.4615 12.2091H44.0271V10.2272H37.4615V12.2091V12.2091ZM45.1792 0.999289H34.5578C33.9186 1.0141 33.2936 1.19451 32.7421 1.52344C32.1906 1.85238 31.7307 2.31897 31.4061 2.87903L31.392 2.90296L31.3794 2.9269L29.9103 5.69704C29.9103 5.69704 28.201 2.30298 27.7113 1.89448C27.1948 1.44061 26.559 1.15017 25.8822 1.05888C25.2053 0.967594 24.517 1.07944 23.9019 1.38066C22.9885 1.82746 22.4893 2.64605 22.053 3.61465L20.9433 5.70662L19.5982 3.01147C19.2986 2.41005 18.842 1.90411 18.2783 1.54917C17.7145 1.19422 17.0656 1.00397 16.4025 0.999289H7.82317C7.36271 0.998869 6.90669 1.09074 6.48119 1.26964C6.05568 1.44853 5.66904 1.71096 5.34338 2.04189C5.01771 2.37283 4.75941 2.76579 4.58325 3.1983C4.40709 3.6308 4.31652 4.09437 4.31673 4.5625V5.49439H3.50683C3.04656 5.49439 2.5908 5.58655 2.16557 5.76562C1.74034 5.94469 1.35397 6.20715 1.02851 6.53803C0.70305 6.8689 0.444882 7.2617 0.268745 7.69401C0.092609 8.12632 0.00195312 8.58967 0.00195313 9.0576C0.00195312 9.52553 0.092609 9.98887 0.268745 10.4212C0.444882 10.8535 0.70305 11.2463 1.02851 11.5772C1.35397 11.908 1.74034 12.1705 2.16557 12.3496C2.5908 12.5286 3.04656 12.6208 3.50683 12.6208H4.31673V13.4458C4.33613 14.378 4.714 15.2653 5.36932 15.9176C6.02465 16.5699 6.90527 16.9352 7.82238 16.9352C8.7395 16.9352 9.62012 16.5699 10.2754 15.9176C10.9308 15.2653 11.3086 14.378 11.328 13.4458V12.6208H14.4405C15.0903 12.6222 15.7275 12.4387 16.2801 12.091L17.6519 14.8293C17.8386 15.2726 18.1116 15.6729 18.4545 16.0061C18.7974 16.3393 19.2031 16.5985 19.6472 16.768C20.0913 16.9375 20.5645 17.0139 21.0384 16.9925C21.5123 16.9711 21.977 16.8524 22.4046 16.6436C23.282 16.231 23.984 15.511 24.3822 14.6154L25.3758 12.3527L26.6173 14.8309C26.6863 14.9869 26.766 15.1378 26.8559 15.2824C27.1949 15.8507 27.6837 16.311 28.2667 16.6115C28.8498 16.912 29.504 17.0405 30.1552 16.9825C30.8064 16.9246 31.4287 16.6825 31.9516 16.2836C32.4744 15.8847 32.877 15.345 33.1138 14.7255C33.3781 15.3809 33.8281 15.9416 34.4067 16.3362C34.9852 16.7309 35.6661 16.9417 36.3628 16.942H45.1792C45.6361 16.9489 46.0898 16.8637 46.514 16.6911C46.9382 16.5185 47.3245 16.262 47.6505 15.9365C47.9765 15.611 48.2357 15.2229 48.4132 14.7949C48.5906 14.3668 48.6826 13.9071 48.684 13.4426V12.6176H49.4955C50.4251 12.6176 51.3165 12.2422 51.9738 11.574C52.6311 10.9057 53.0004 9.99943 53.0004 9.0544C53.0004 8.10938 52.6311 7.20306 51.9738 6.53483C51.3165 5.8666 50.4251 5.4912 49.4955 5.4912H48.684V4.55931C48.6843 4.09132 48.5937 3.62788 48.4177 3.19548C48.2416 2.76307 47.9835 2.37018 47.658 2.03927C47.3325 1.70835 46.946 1.4459 46.5207 1.2669C46.0954 1.08791 45.6395 0.995884 45.1792 0.996094V0.999289Z"
    fill="#FAFAF6" />
</svg>