<svg width="42" height="32" viewBox="0 0 42 32" fill="none"
    xmlns="http://www.w3.org/2000/svg">
    <path d="M16.9853 23.6505C16.9853 22.9187 16.9802 22.3089 16.9904 21.699C16.9955 21.5161 16.9548 21.2264 17.0056 20.9114C17.3766 21.1197 17.7577 21.389 18.0525 21.5618C20.939 23.2338 24.5878 22.8425 27.0067 20.6064C29.5324 18.2688 30.2185 14.6606 28.7143 11.6064C27.2456 8.62338 23.9932 6.92603 20.7255 7.42406C17.4223 7.93225 14.6375 10.5494 14.4139 13.9136C14.1496 17.9435 14.2766 22.004 14.236 26.0491C14.2309 26.5217 14.236 26.9994 14.236 27.5635C13.4635 27.5635 12.747 27.5737 11.9847 27.5737C11.9695 27.2027 11.9695 26.8114 11.9695 26.4404C11.9644 22.5528 11.9542 18.6601 11.9695 14.7724C11.9949 9.42124 16.472 5.00509 21.8639 5C27.3167 4.99492 31.7735 9.40599 31.799 14.8334C31.8294 21.8159 25.1976 26.6386 18.6471 24.3823C18.1033 24.1993 17.5951 23.9249 16.9853 23.6505Z" fill="white"/>
    <path d="M39 24.8956H34.0553V23.3507H37.1095L37.1197 7.30213L34.0807 7.28688V5.70642H39V24.8956Z" fill="white"/>
    <path d="M3 5.69116C4.63128 5.69116 6.18634 5.69116 7.84303 5.69116C7.84303 6.23492 7.84303 6.7177 7.84303 7.33769C6.87747 7.33769 5.99322 7.33769 4.91587 7.33769C4.91587 12.7041 4.91587 17.9385 4.91587 23.3202C5.81028 23.3202 6.75551 23.3202 7.77696 23.3202C7.77696 23.8995 7.77696 24.3264 7.77696 24.8498C6.20158 24.8498 4.65161 24.8498 3 24.8498C3 18.5026 3 12.1706 3 5.69116Z" fill="white"/>
</svg>
