<?xml version="1.0" encoding="UTF-8"?><svg xmlns="http://www.w3.org/2000/svg" viewBox="0 0 40.22 40.22"><defs><style>.d{fill:#fbfbf6;opacity:0;}</style></defs><g id="a"/><g id="b"><g id="c"><circle class="d" cx="20.11" cy="20.11" r="20.11"/><path d="M30.09,10.85c-1.86-.87-3.85-1.5-5.93-1.86-.26,.46-.55,1.08-.76,1.58-2.21-.33-4.4-.33-6.57,0-.21-.49-.51-1.12-.77-1.58-2.08,.36-4.07,1-5.94,1.87-3.75,5.67-4.77,11.2-4.26,16.66,2.49,1.86,4.9,2.99,7.27,3.73,.59-.81,1.11-1.66,1.56-2.57-.86-.33-1.68-.73-2.45-1.19,.21-.15,.41-.31,.6-.48,4.73,2.21,9.87,2.21,14.54,0,.2,.16,.4,.32,.6,.48-.78,.47-1.6,.87-2.46,1.2,.45,.9,.97,1.76,1.56,2.57,2.37-.74,4.79-1.87,7.28-3.73,.6-6.32-1.02-11.8-4.27-16.66Zm-14.75,13.31c-1.42,0-2.58-1.33-2.58-2.94s1.14-2.94,2.58-2.94,2.61,1.33,2.58,2.94c0,1.61-1.14,2.94-2.58,2.94Zm9.55,0c-1.42,0-2.58-1.33-2.58-2.94s1.14-2.94,2.58-2.94,2.61,1.33,2.58,2.94c0,1.61-1.14,2.94-2.58,2.94Z"/></g></g></svg>