<svg width="45" height="45" viewBox="0 0 45 45" fill="none" xmlns="http://www.w3.org/2000/svg">
<path d="M22.5 45C34.9264 45 45 34.9264 45 22.5C45 10.0736 34.9264 0 22.5 0C10.0736 0 0 10.0736 0 22.5C0 34.9264 10.0736 45 22.5 45Z" fill="white"/>
<path d="M24.5678 16.6559H19.3038C17.7277 16.6559 16.4542 17.9294 16.4542 19.5055C16.4542 21.0816 17.7277 22.355 19.3038 22.355H25.7026C27.2787 22.355 28.5522 23.6285 28.5522 25.2046V25.7846C28.5522 27.3606 27.2787 28.6341 25.7026 28.6341H20.4385" stroke="black" stroke-width="1.9187" stroke-miterlimit="10"/>
<path d="M28.5521 20.3439C30.7525 20.3439 32.5364 18.5601 32.5364 16.3596C32.5364 14.1591 30.7525 12.3753 28.5521 12.3753C26.3516 12.3753 24.5677 14.1591 24.5677 16.3596C24.5677 18.5601 26.3516 20.3439 28.5521 20.3439Z" stroke="black" stroke-width="1.9187" stroke-miterlimit="10"/>
<path d="M16.4479 32.6247C18.6484 32.6247 20.4322 30.8409 20.4322 28.6404C20.4322 26.4399 18.6484 24.6561 16.4479 24.6561C14.2475 24.6561 12.4636 26.4399 12.4636 28.6404C12.4636 30.8409 14.2475 32.6247 16.4479 32.6247Z" stroke="black" stroke-width="1.9187" stroke-miterlimit="10"/>
</svg>
